<?xml version="1.0" encoding="UTF-8" standalone="no"?>
<!DOCTYPE svg PUBLIC "-//W3C//DTD SVG 1.1//EN"
 "http://www.w3.org/Graphics/SVG/1.1/DTD/svg11.dtd">
<!-- Generated by graphviz version 14.0.5 (20251129.0259)
 -->
<!-- Title: ERD_fitness_db Pages: 1 -->
<svg width="611pt" height="1511pt"
 viewBox="0.00 0.00 611.00 1511.00" xmlns="http://www.w3.org/2000/svg" xmlns:xlink="http://www.w3.org/1999/xlink">
<g id="graph0" class="graph" transform="scale(1 1) rotate(0) translate(4 1506.5)">
<title>ERD_fitness_db</title>
<polygon fill="white" stroke="none" points="-4,4 -4,-1506.5 607,-1506.5 607,4 -4,4"/>
<!-- derived_metrics -->
<g id="node1" class="node">
<title>derived_metrics</title>
<polygon fill="#3498db" stroke="none" points="387.88,-1472.75 387.88,-1498.5 560.12,-1498.5 560.12,-1472.75 387.88,-1472.75"/>
<polygon fill="none" stroke="black" points="387.88,-1472.75 387.88,-1498.5 560.12,-1498.5 560.12,-1472.75 387.88,-1472.75"/>
<text xml:space="preserve" text-anchor="start" x="421.88" y="-1481.2" font-family="Arial" font-weight="bold" font-size="14.00" fill="WHITE">derived_metrics</text>
<polygon fill="none" stroke="black" points="387.88,-1447 387.88,-1472.75 487.88,-1472.75 487.88,-1447 387.88,-1447"/>
<text xml:space="preserve" text-anchor="start" x="392.88" y="-1454.45" font-family="Arial" font-size="14.00" fill="#1e8449">metric_id</text>
<polygon fill="none" stroke="black" points="487.88,-1447 487.88,-1472.75 560.12,-1472.75 560.12,-1447 487.88,-1447"/>
<text xml:space="preserve" text-anchor="start" x="492.88" y="-1457.38" font-family="Arial" font-size="10.00">INTEGER </text>
<text xml:space="preserve" text-anchor="start" x="540.88" y="-1457.38" font-family="Arial" font-weight="bold" font-size="10.00">PK</text>
<polygon fill="none" stroke="black" points="387.88,-1421.25 387.88,-1447 487.88,-1447 487.88,-1421.25 387.88,-1421.25"/>
<text xml:space="preserve" text-anchor="start" x="392.88" y="-1428.7" font-family="Arial" font-size="14.00" fill="#c0392b">user_id</text>
<polygon fill="none" stroke="black" points="487.88,-1421.25 487.88,-1447 560.12,-1447 560.12,-1421.25 487.88,-1421.25"/>
<text xml:space="preserve" text-anchor="start" x="492.88" y="-1430.62" font-family="Arial" font-size="10.00">INTEGER </text>
<polygon fill="none" stroke="black" points="387.88,-1395.5 387.88,-1421.25 487.88,-1421.25 487.88,-1395.5 387.88,-1395.5"/>
<text xml:space="preserve" text-anchor="start" x="392.88" y="-1402.95" font-family="Arial" font-size="14.00" fill="#1e8449">fat_percentage</text>
<polygon fill="none" stroke="black" points="487.88,-1395.5 487.88,-1421.25 560.12,-1421.25 560.12,-1395.5 487.88,-1395.5"/>
<text xml:space="preserve" text-anchor="start" x="492.88" y="-1404.88" font-family="Arial" font-size="10.00">REAL </text>
<polygon fill="none" stroke="black" points="387.88,-1369.75 387.88,-1395.5 487.88,-1395.5 487.88,-1369.75 387.88,-1369.75"/>
<text xml:space="preserve" text-anchor="start" x="392.88" y="-1377.2" font-family="Arial" font-size="14.00" fill="#1e8449">water_intake</text>
<polygon fill="none" stroke="black" points="487.88,-1369.75 487.88,-1395.5 560.12,-1395.5 560.12,-1369.75 487.88,-1369.75"/>
<text xml:space="preserve" text-anchor="start" x="492.88" y="-1379.12" font-family="Arial" font-size="10.00">REAL </text>
<polygon fill="none" stroke="black" points="387.88,-1344 387.88,-1369.75 487.88,-1369.75 487.88,-1344 387.88,-1344"/>
<text xml:space="preserve" text-anchor="start" x="392.88" y="-1351.45" font-family="Arial" font-size="14.00" fill="#1e8449">lean_mass_kg</text>
<polygon fill="none" stroke="black" points="487.88,-1344 487.88,-1369.75 560.12,-1369.75 560.12,-1344 487.88,-1344"/>
<text xml:space="preserve" text-anchor="start" x="492.88" y="-1353.38" font-family="Arial" font-size="10.00">REAL </text>
<polygon fill="none" stroke="black" points="387.88,-1318.25 387.88,-1344 487.88,-1344 487.88,-1318.25 387.88,-1318.25"/>
<text xml:space="preserve" text-anchor="start" x="392.88" y="-1325.7" font-family="Arial" font-size="14.00" fill="#1e8449">cal_balance</text>
<polygon fill="none" stroke="black" points="487.88,-1318.25 487.88,-1344 560.12,-1344 560.12,-1318.25 487.88,-1318.25"/>
<text xml:space="preserve" text-anchor="start" x="492.88" y="-1327.62" font-family="Arial" font-size="10.00">REAL </text>
</g>
<!-- users -->
<g id="node2" class="node">
<title>users</title>
<polygon fill="#3498db" stroke="none" points="8,-989 8,-1014.75 204.25,-1014.75 204.25,-989 8,-989"/>
<polygon fill="none" stroke="black" points="8,-989 8,-1014.75 204.25,-1014.75 204.25,-989 8,-989"/>
<text xml:space="preserve" text-anchor="start" x="88.12" y="-997.45" font-family="Arial" font-weight="bold" font-size="14.00" fill="WHITE">users</text>
<polygon fill="none" stroke="black" points="8,-963.25 8,-989 132,-989 132,-963.25 8,-963.25"/>
<text xml:space="preserve" text-anchor="start" x="13" y="-970.7" font-family="Arial" font-size="14.00" fill="#1e8449">user_id</text>
<polygon fill="none" stroke="black" points="132,-963.25 132,-989 204.25,-989 204.25,-963.25 132,-963.25"/>
<text xml:space="preserve" text-anchor="start" x="137" y="-973.62" font-family="Arial" font-size="10.00">INTEGER </text>
<text xml:space="preserve" text-anchor="start" x="185" y="-973.62" font-family="Arial" font-weight="bold" font-size="10.00">PK</text>
<polygon fill="none" stroke="black" points="8,-937.5 8,-963.25 132,-963.25 132,-937.5 8,-937.5"/>
<text xml:space="preserve" text-anchor="start" x="13" y="-944.95" font-family="Arial" font-size="14.00" fill="#1e8449">age</text>
<polygon fill="none" stroke="black" points="132,-937.5 132,-963.25 204.25,-963.25 204.25,-937.5 132,-937.5"/>
<text xml:space="preserve" text-anchor="start" x="137" y="-946.88" font-family="Arial" font-size="10.00">REAL </text>
<polygon fill="none" stroke="black" points="8,-911.75 8,-937.5 132,-937.5 132,-911.75 8,-911.75"/>
<text xml:space="preserve" text-anchor="start" x="13" y="-919.2" font-family="Arial" font-size="14.00" fill="#1e8449">gender</text>
<polygon fill="none" stroke="black" points="132,-911.75 132,-937.5 204.25,-937.5 204.25,-911.75 132,-911.75"/>
<text xml:space="preserve" text-anchor="start" x="137" y="-921.12" font-family="Arial" font-size="10.00">TEXT </text>
<polygon fill="none" stroke="black" points="8,-886 8,-911.75 132,-911.75 132,-886 8,-886"/>
<text xml:space="preserve" text-anchor="start" x="13" y="-893.45" font-family="Arial" font-size="14.00" fill="#1e8449">weight</text>
<polygon fill="none" stroke="black" points="132,-886 132,-911.75 204.25,-911.75 204.25,-886 132,-886"/>
<text xml:space="preserve" text-anchor="start" x="137" y="-895.38" font-family="Arial" font-size="10.00">REAL </text>
<polygon fill="none" stroke="black" points="8,-860.25 8,-886 132,-886 132,-860.25 8,-860.25"/>
<text xml:space="preserve" text-anchor="start" x="13" y="-867.7" font-family="Arial" font-size="14.00" fill="#1e8449">height</text>
<polygon fill="none" stroke="black" points="132,-860.25 132,-886 204.25,-886 204.25,-860.25 132,-860.25"/>
<text xml:space="preserve" text-anchor="start" x="137" y="-869.62" font-family="Arial" font-size="10.00">REAL </text>
<polygon fill="none" stroke="black" points="8,-834.5 8,-860.25 132,-860.25 132,-834.5 8,-834.5"/>
<text xml:space="preserve" text-anchor="start" x="13" y="-841.95" font-family="Arial" font-size="14.00" fill="#1e8449">bmi</text>
<polygon fill="none" stroke="black" points="132,-834.5 132,-860.25 204.25,-860.25 204.25,-834.5 132,-834.5"/>
<text xml:space="preserve" text-anchor="start" x="137" y="-843.88" font-family="Arial" font-size="10.00">REAL </text>
<polygon fill="none" stroke="black" points="8,-808.75 8,-834.5 132,-834.5 132,-808.75 8,-808.75"/>
<text xml:space="preserve" text-anchor="start" x="13" y="-816.2" font-family="Arial" font-size="14.00" fill="#1e8449">fat_percentage</text>
<polygon fill="none" stroke="black" points="132,-808.75 132,-834.5 204.25,-834.5 204.25,-808.75 132,-808.75"/>
<text xml:space="preserve" text-anchor="start" x="137" y="-818.12" font-family="Arial" font-size="10.00">REAL </text>
<polygon fill="none" stroke="black" points="8,-783 8,-808.75 132,-808.75 132,-783 8,-783"/>
<text xml:space="preserve" text-anchor="start" x="13" y="-790.45" font-family="Arial" font-size="14.00" fill="#1e8449">lean_mass_kg</text>
<polygon fill="none" stroke="black" points="132,-783 132,-808.75 204.25,-808.75 204.25,-783 132,-783"/>
<text xml:space="preserve" text-anchor="start" x="137" y="-792.38" font-family="Arial" font-size="10.00">REAL </text>
<polygon fill="none" stroke="black" points="8,-757.25 8,-783 132,-783 132,-757.25 8,-757.25"/>
<text xml:space="preserve" text-anchor="start" x="13" y="-764.7" font-family="Arial" font-size="14.00" fill="#1e8449">experience_level</text>
<polygon fill="none" stroke="black" points="132,-757.25 132,-783 204.25,-783 204.25,-757.25 132,-757.25"/>
<text xml:space="preserve" text-anchor="start" x="137" y="-766.62" font-family="Arial" font-size="10.00">TEXT </text>
<polygon fill="none" stroke="black" points="8,-731.5 8,-757.25 132,-757.25 132,-731.5 8,-731.5"/>
<text xml:space="preserve" text-anchor="start" x="13" y="-738.95" font-family="Arial" font-size="14.00" fill="#1e8449">workout_frequency</text>
<polygon fill="none" stroke="black" points="132,-731.5 132,-757.25 204.25,-757.25 204.25,-731.5 132,-731.5"/>
<text xml:space="preserve" text-anchor="start" x="137" y="-740.88" font-family="Arial" font-size="10.00">REAL </text>
<polygon fill="none" stroke="black" points="8,-705.75 8,-731.5 132,-731.5 132,-705.75 8,-705.75"/>
<text xml:space="preserve" text-anchor="start" x="13" y="-713.2" font-family="Arial" font-size="14.00" fill="#1e8449">water_intake</text>
<polygon fill="none" stroke="black" points="132,-705.75 132,-731.5 204.25,-731.5 204.25,-705.75 132,-705.75"/>
<text xml:space="preserve" text-anchor="start" x="137" y="-715.12" font-family="Arial" font-size="10.00">REAL </text>
<polygon fill="none" stroke="black" points="8,-680 8,-705.75 132,-705.75 132,-680 8,-680"/>
<text xml:space="preserve" text-anchor="start" x="13" y="-687.45" font-family="Arial" font-size="14.00" fill="#1e8449">resting_bpm</text>
<polygon fill="none" stroke="black" points="132,-680 132,-705.75 204.25,-705.75 204.25,-680 132,-680"/>
<text xml:space="preserve" text-anchor="start" x="137" y="-689.38" font-family="Arial" font-size="10.00">REAL </text>
</g>
<!-- users&#45;&gt;derived_metrics -->
<g id="edge1" class="edge">
<title>users&#45;&gt;derived_metrics</title>
<path fill="none" stroke="black" d="M207.07,-1018.67C208.82,-1021.93 210.55,-1025.16 212.25,-1028.38 276.08,-1149.05 260.22,-1198.37 345,-1305.38 353.19,-1315.71 362.59,-1325.67 372.5,-1335.05"/>
<polygon fill="black" stroke="black" points="372.57,-1335.11 376.88,-1345.19 376.49,-1338.72 379.68,-1341.66 379.68,-1341.66 379.68,-1341.66 376.49,-1338.72 382.97,-1338.57 372.57,-1335.11"/>
<text xml:space="preserve" text-anchor="middle" x="278.62" y="-1283.24" font-family="Arial" font-size="10.00">FK: user_id &#45;&gt; user_id</text>
<text xml:space="preserve" text-anchor="middle" x="377.55" y="-1332.61" font-family="Arial" font-size="10.00">1</text>
<text xml:space="preserve" text-anchor="middle" x="202.95" y="-1021.17" font-family="Arial" font-size="10.00">M</text>
</g>
<!-- workouts -->
<g id="node3" class="node">
<title>workouts</title>
<polygon fill="#3498db" stroke="none" points="369.12,-1266.62 369.12,-1292.38 578.88,-1292.38 578.88,-1266.62 369.12,-1266.62"/>
<polygon fill="none" stroke="black" points="369.12,-1266.62 369.12,-1292.38 578.88,-1292.38 578.88,-1266.62 369.12,-1266.62"/>
<text xml:space="preserve" text-anchor="start" x="443.62" y="-1275.08" font-family="Arial" font-weight="bold" font-size="14.00" fill="WHITE">workouts</text>
<polygon fill="none" stroke="black" points="369.12,-1240.88 369.12,-1266.62 506.62,-1266.62 506.62,-1240.88 369.12,-1240.88"/>
<text xml:space="preserve" text-anchor="start" x="374.12" y="-1248.33" font-family="Arial" font-size="14.00" fill="#1e8449">workout_id</text>
<polygon fill="none" stroke="black" points="506.62,-1240.88 506.62,-1266.62 578.88,-1266.62 578.88,-1240.88 506.62,-1240.88"/>
<text xml:space="preserve" text-anchor="start" x="511.62" y="-1251.25" font-family="Arial" font-size="10.00">INTEGER </text>
<text xml:space="preserve" text-anchor="start" x="559.62" y="-1251.25" font-family="Arial" font-weight="bold" font-size="10.00">PK</text>
<polygon fill="none" stroke="black" points="369.12,-1215.12 369.12,-1240.88 506.62,-1240.88 506.62,-1215.12 369.12,-1215.12"/>
<text xml:space="preserve" text-anchor="start" x="374.12" y="-1222.58" font-family="Arial" font-size="14.00" fill="#c0392b">user_id</text>
<polygon fill="none" stroke="black" points="506.62,-1215.12 506.62,-1240.88 578.88,-1240.88 578.88,-1215.12 506.62,-1215.12"/>
<text xml:space="preserve" text-anchor="start" x="511.62" y="-1224.5" font-family="Arial" font-size="10.00">INTEGER </text>
<polygon fill="none" stroke="black" points="369.12,-1189.38 369.12,-1215.12 506.62,-1215.12 506.62,-1189.38 369.12,-1189.38"/>
<text xml:space="preserve" text-anchor="start" x="374.12" y="-1196.83" font-family="Arial" font-size="14.00" fill="#1e8449">workout_type</text>
<polygon fill="none" stroke="black" points="506.62,-1189.38 506.62,-1215.12 578.88,-1215.12 578.88,-1189.38 506.62,-1189.38"/>
<text xml:space="preserve" text-anchor="start" x="511.62" y="-1198.75" font-family="Arial" font-size="10.00">TEXT </text>
<polygon fill="none" stroke="black" points="369.12,-1163.62 369.12,-1189.38 506.62,-1189.38 506.62,-1163.62 369.12,-1163.62"/>
<text xml:space="preserve" text-anchor="start" x="374.12" y="-1171.08" font-family="Arial" font-size="14.00" fill="#1e8449">session_duration</text>
<polygon fill="none" stroke="black" points="506.62,-1163.62 506.62,-1189.38 578.88,-1189.38 578.88,-1163.62 506.62,-1163.62"/>
<text xml:space="preserve" text-anchor="start" x="511.62" y="-1173" font-family="Arial" font-size="10.00">REAL </text>
<polygon fill="none" stroke="black" points="369.12,-1137.88 369.12,-1163.62 506.62,-1163.62 506.62,-1137.88 369.12,-1137.88"/>
<text xml:space="preserve" text-anchor="start" x="374.12" y="-1145.33" font-family="Arial" font-size="14.00" fill="#1e8449">calories_burned</text>
<polygon fill="none" stroke="black" points="506.62,-1137.88 506.62,-1163.62 578.88,-1163.62 578.88,-1137.88 506.62,-1137.88"/>
<text xml:space="preserve" text-anchor="start" x="511.62" y="-1147.25" font-family="Arial" font-size="10.00">REAL </text>
<polygon fill="none" stroke="black" points="369.12,-1112.12 369.12,-1137.88 506.62,-1137.88 506.62,-1112.12 369.12,-1112.12"/>
<text xml:space="preserve" text-anchor="start" x="374.12" y="-1119.58" font-family="Arial" font-size="14.00" fill="#1e8449">max_bpm</text>
<polygon fill="none" stroke="black" points="506.62,-1112.12 506.62,-1137.88 578.88,-1137.88 578.88,-1112.12 506.62,-1112.12"/>
<text xml:space="preserve" text-anchor="start" x="511.62" y="-1121.5" font-family="Arial" font-size="10.00">REAL </text>
<polygon fill="none" stroke="black" points="369.12,-1086.38 369.12,-1112.12 506.62,-1112.12 506.62,-1086.38 369.12,-1086.38"/>
<text xml:space="preserve" text-anchor="start" x="374.12" y="-1093.83" font-family="Arial" font-size="14.00" fill="#1e8449">avg_bpm</text>
<polygon fill="none" stroke="black" points="506.62,-1086.38 506.62,-1112.12 578.88,-1112.12 578.88,-1086.38 506.62,-1086.38"/>
<text xml:space="preserve" text-anchor="start" x="511.62" y="-1095.75" font-family="Arial" font-size="10.00">REAL </text>
<polygon fill="none" stroke="black" points="369.12,-1060.62 369.12,-1086.38 506.62,-1086.38 506.62,-1060.62 369.12,-1060.62"/>
<text xml:space="preserve" text-anchor="start" x="374.12" y="-1068.08" font-family="Arial" font-size="14.00" fill="#1e8449">resting_bpm</text>
<polygon fill="none" stroke="black" points="506.62,-1060.62 506.62,-1086.38 578.88,-1086.38 578.88,-1060.62 506.62,-1060.62"/>
<text xml:space="preserve" text-anchor="start" x="511.62" y="-1070" font-family="Arial" font-size="10.00">REAL </text>
<polygon fill="none" stroke="black" points="369.12,-1034.88 369.12,-1060.62 506.62,-1060.62 506.62,-1034.88 369.12,-1034.88"/>
<text xml:space="preserve" text-anchor="start" x="374.12" y="-1042.33" font-family="Arial" font-size="14.00" fill="#1e8449">name_of_exercise</text>
<polygon fill="none" stroke="black" points="506.62,-1034.88 506.62,-1060.62 578.88,-1060.62 578.88,-1034.88 506.62,-1034.88"/>
<text xml:space="preserve" text-anchor="start" x="511.62" y="-1044.25" font-family="Arial" font-size="10.00">TEXT </text>
<polygon fill="none" stroke="black" points="369.12,-1009.12 369.12,-1034.88 506.62,-1034.88 506.62,-1009.12 369.12,-1009.12"/>
<text xml:space="preserve" text-anchor="start" x="374.12" y="-1016.58" font-family="Arial" font-size="14.00" fill="#1e8449">sets</text>
<polygon fill="none" stroke="black" points="506.62,-1009.12 506.62,-1034.88 578.88,-1034.88 578.88,-1009.12 506.62,-1009.12"/>
<text xml:space="preserve" text-anchor="start" x="511.62" y="-1018.5" font-family="Arial" font-size="10.00">REAL </text>
<polygon fill="none" stroke="black" points="369.12,-983.38 369.12,-1009.12 506.62,-1009.12 506.62,-983.38 369.12,-983.38"/>
<text xml:space="preserve" text-anchor="start" x="374.12" y="-990.83" font-family="Arial" font-size="14.00" fill="#1e8449">reps</text>
<polygon fill="none" stroke="black" points="506.62,-983.38 506.62,-1009.12 578.88,-1009.12 578.88,-983.38 506.62,-983.38"/>
<text xml:space="preserve" text-anchor="start" x="511.62" y="-992.75" font-family="Arial" font-size="10.00">REAL </text>
<polygon fill="none" stroke="black" points="369.12,-957.62 369.12,-983.38 506.62,-983.38 506.62,-957.62 369.12,-957.62"/>
<text xml:space="preserve" text-anchor="start" x="374.12" y="-965.08" font-family="Arial" font-size="14.00" fill="#1e8449">target_muscle_group</text>
<polygon fill="none" stroke="black" points="506.62,-957.62 506.62,-983.38 578.88,-983.38 578.88,-957.62 506.62,-957.62"/>
<text xml:space="preserve" text-anchor="start" x="511.62" y="-967" font-family="Arial" font-size="10.00">TEXT </text>
<polygon fill="none" stroke="black" points="369.12,-931.88 369.12,-957.62 506.62,-957.62 506.62,-931.88 369.12,-931.88"/>
<text xml:space="preserve" text-anchor="start" x="374.12" y="-939.33" font-family="Arial" font-size="14.00" fill="#1e8449">equipment_needed</text>
<polygon fill="none" stroke="black" points="506.62,-931.88 506.62,-957.62 578.88,-957.62 578.88,-931.88 506.62,-931.88"/>
<text xml:space="preserve" text-anchor="start" x="511.62" y="-941.25" font-family="Arial" font-size="10.00">TEXT </text>
<polygon fill="none" stroke="black" points="369.12,-906.12 369.12,-931.88 506.62,-931.88 506.62,-906.12 369.12,-906.12"/>
<text xml:space="preserve" text-anchor="start" x="374.12" y="-913.58" font-family="Arial" font-size="14.00" fill="#1e8449">difficulty_level</text>
<polygon fill="none" stroke="black" points="506.62,-906.12 506.62,-931.88 578.88,-931.88 578.88,-906.12 506.62,-906.12"/>
<text xml:space="preserve" text-anchor="start" x="511.62" y="-915.5" font-family="Arial" font-size="10.00">TEXT </text>
<polygon fill="none" stroke="black" points="369.12,-880.38 369.12,-906.12 506.62,-906.12 506.62,-880.38 369.12,-880.38"/>
<text xml:space="preserve" text-anchor="start" x="374.12" y="-887.83" font-family="Arial" font-size="14.00" fill="#1e8449">body_part</text>
<polygon fill="none" stroke="black" points="506.62,-880.38 506.62,-906.12 578.88,-906.12 578.88,-880.38 506.62,-880.38"/>
<text xml:space="preserve" text-anchor="start" x="511.62" y="-889.75" font-family="Arial" font-size="10.00">TEXT </text>
</g>
<!-- users&#45;&gt;workouts -->
<g id="edge2" class="edge">
<title>users&#45;&gt;workouts</title>
<path fill="none" stroke="black" d="M211.97,-915.86C255.91,-944.57 307.25,-978.1 352.72,-1007.8"/>
<polygon fill="black" stroke="black" points="352.78,-1007.84 358.69,-1017.08 357.25,-1010.76 360.87,-1013.13 360.87,-1013.13 360.87,-1013.13 357.25,-1010.76 363.61,-1009.55 352.78,-1007.84"/>
<text xml:space="preserve" text-anchor="middle" x="278.62" y="-990.78" font-family="Arial" font-size="10.00">FK: user_id &#45;&gt; user_id</text>
<text xml:space="preserve" text-anchor="middle" x="358.81" y="-1004" font-family="Arial" font-size="10.00">1</text>
<text xml:space="preserve" text-anchor="middle" x="216.1" y="-906.36" font-family="Arial" font-size="10.00">M</text>
</g>
<!-- nutrition -->
<g id="node4" class="node">
<title>nutrition</title>
<polygon fill="#3498db" stroke="none" points="363.5,-828.25 363.5,-854 584.5,-854 584.5,-828.25 363.5,-828.25"/>
<polygon fill="none" stroke="black" points="363.5,-828.25 363.5,-854 584.5,-854 584.5,-828.25 363.5,-828.25"/>
<text xml:space="preserve" text-anchor="start" x="446.62" y="-836.7" font-family="Arial" font-weight="bold" font-size="14.00" fill="WHITE">nutrition</text>
<polygon fill="none" stroke="black" points="363.5,-802.5 363.5,-828.25 512.25,-828.25 512.25,-802.5 363.5,-802.5"/>
<text xml:space="preserve" text-anchor="start" x="368.5" y="-809.95" font-family="Arial" font-size="14.00" fill="#1e8449">nutrition_id</text>
<polygon fill="none" stroke="black" points="512.25,-802.5 512.25,-828.25 584.5,-828.25 584.5,-802.5 512.25,-802.5"/>
<text xml:space="preserve" text-anchor="start" x="517.25" y="-812.88" font-family="Arial" font-size="10.00">INTEGER </text>
<text xml:space="preserve" text-anchor="start" x="565.25" y="-812.88" font-family="Arial" font-weight="bold" font-size="10.00">PK</text>
<polygon fill="none" stroke="black" points="363.5,-776.75 363.5,-802.5 512.25,-802.5 512.25,-776.75 363.5,-776.75"/>
<text xml:space="preserve" text-anchor="start" x="368.5" y="-784.2" font-family="Arial" font-size="14.00" fill="#c0392b">user_id</text>
<polygon fill="none" stroke="black" points="512.25,-776.75 512.25,-802.5 584.5,-802.5 584.5,-776.75 512.25,-776.75"/>
<text xml:space="preserve" text-anchor="start" x="517.25" y="-786.12" font-family="Arial" font-size="10.00">INTEGER </text>
<polygon fill="none" stroke="black" points="363.5,-751 363.5,-776.75 512.25,-776.75 512.25,-751 363.5,-751"/>
<text xml:space="preserve" text-anchor="start" x="368.5" y="-758.45" font-family="Arial" font-size="14.00" fill="#1e8449">daily_meals_frequency</text>
<polygon fill="none" stroke="black" points="512.25,-751 512.25,-776.75 584.5,-776.75 584.5,-751 512.25,-751"/>
<text xml:space="preserve" text-anchor="start" x="517.25" y="-760.38" font-family="Arial" font-size="10.00">REAL </text>
<polygon fill="none" stroke="black" points="363.5,-725.25 363.5,-751 512.25,-751 512.25,-725.25 363.5,-725.25"/>
<text xml:space="preserve" text-anchor="start" x="368.5" y="-732.7" font-family="Arial" font-size="14.00" fill="#1e8449">carbs</text>
<polygon fill="none" stroke="black" points="512.25,-725.25 512.25,-751 584.5,-751 584.5,-725.25 512.25,-725.25"/>
<text xml:space="preserve" text-anchor="start" x="517.25" y="-734.62" font-family="Arial" font-size="10.00">REAL </text>
<polygon fill="none" stroke="black" points="363.5,-699.5 363.5,-725.25 512.25,-725.25 512.25,-699.5 363.5,-699.5"/>
<text xml:space="preserve" text-anchor="start" x="368.5" y="-706.95" font-family="Arial" font-size="14.00" fill="#1e8449">proteins</text>
<polygon fill="none" stroke="black" points="512.25,-699.5 512.25,-725.25 584.5,-725.25 584.5,-699.5 512.25,-699.5"/>
<text xml:space="preserve" text-anchor="start" x="517.25" y="-708.88" font-family="Arial" font-size="10.00">REAL </text>
<polygon fill="none" stroke="black" points="363.5,-673.75 363.5,-699.5 512.25,-699.5 512.25,-673.75 363.5,-673.75"/>
<text xml:space="preserve" text-anchor="start" x="368.5" y="-681.2" font-family="Arial" font-size="14.00" fill="#1e8449">fats</text>
<polygon fill="none" stroke="black" points="512.25,-673.75 512.25,-699.5 584.5,-699.5 584.5,-673.75 512.25,-673.75"/>
<text xml:space="preserve" text-anchor="start" x="517.25" y="-683.12" font-family="Arial" font-size="10.00">REAL </text>
<polygon fill="none" stroke="black" points="363.5,-648 363.5,-673.75 512.25,-673.75 512.25,-648 363.5,-648"/>
<text xml:space="preserve" text-anchor="start" x="368.5" y="-655.45" font-family="Arial" font-size="14.00" fill="#1e8449">calories</text>
<polygon fill="none" stroke="black" points="512.25,-648 512.25,-673.75 584.5,-673.75 584.5,-648 512.25,-648"/>
<text xml:space="preserve" text-anchor="start" x="517.25" y="-657.38" font-family="Arial" font-size="10.00">REAL </text>
<polygon fill="none" stroke="black" points="363.5,-622.25 363.5,-648 512.25,-648 512.25,-622.25 363.5,-622.25"/>
<text xml:space="preserve" text-anchor="start" x="368.5" y="-629.7" font-family="Arial" font-size="14.00" fill="#1e8449">meal_name</text>
<polygon fill="none" stroke="black" points="512.25,-622.25 512.25,-648 584.5,-648 584.5,-622.25 512.25,-622.25"/>
<text xml:space="preserve" text-anchor="start" x="517.25" y="-631.62" font-family="Arial" font-size="10.00">TEXT </text>
<polygon fill="none" stroke="black" points="363.5,-596.5 363.5,-622.25 512.25,-622.25 512.25,-596.5 363.5,-596.5"/>
<text xml:space="preserve" text-anchor="start" x="368.5" y="-603.95" font-family="Arial" font-size="14.00" fill="#1e8449">meal_type</text>
<polygon fill="none" stroke="black" points="512.25,-596.5 512.25,-622.25 584.5,-622.25 584.5,-596.5 512.25,-596.5"/>
<text xml:space="preserve" text-anchor="start" x="517.25" y="-605.88" font-family="Arial" font-size="10.00">TEXT </text>
<polygon fill="none" stroke="black" points="363.5,-570.75 363.5,-596.5 512.25,-596.5 512.25,-570.75 363.5,-570.75"/>
<text xml:space="preserve" text-anchor="start" x="368.5" y="-578.2" font-family="Arial" font-size="14.00" fill="#1e8449">diet_type</text>
<polygon fill="none" stroke="black" points="512.25,-570.75 512.25,-596.5 584.5,-596.5 584.5,-570.75 512.25,-570.75"/>
<text xml:space="preserve" text-anchor="start" x="517.25" y="-580.12" font-family="Arial" font-size="10.00">TEXT </text>
<polygon fill="none" stroke="black" points="363.5,-545 363.5,-570.75 512.25,-570.75 512.25,-545 363.5,-545"/>
<text xml:space="preserve" text-anchor="start" x="368.5" y="-552.45" font-family="Arial" font-size="14.00" fill="#1e8449">sugar_g</text>
<polygon fill="none" stroke="black" points="512.25,-545 512.25,-570.75 584.5,-570.75 584.5,-545 512.25,-545"/>
<text xml:space="preserve" text-anchor="start" x="517.25" y="-554.38" font-family="Arial" font-size="10.00">REAL </text>
<polygon fill="none" stroke="black" points="363.5,-519.25 363.5,-545 512.25,-545 512.25,-519.25 363.5,-519.25"/>
<text xml:space="preserve" text-anchor="start" x="368.5" y="-526.7" font-family="Arial" font-size="14.00" fill="#1e8449">sodium_mg</text>
<polygon fill="none" stroke="black" points="512.25,-519.25 512.25,-545 584.5,-545 584.5,-519.25 512.25,-519.25"/>
<text xml:space="preserve" text-anchor="start" x="517.25" y="-528.62" font-family="Arial" font-size="10.00">REAL </text>
<polygon fill="none" stroke="black" points="363.5,-493.5 363.5,-519.25 512.25,-519.25 512.25,-493.5 363.5,-493.5"/>
<text xml:space="preserve" text-anchor="start" x="368.5" y="-500.95" font-family="Arial" font-size="14.00" fill="#1e8449">cholesterol_mg</text>
<polygon fill="none" stroke="black" points="512.25,-493.5 512.25,-519.25 584.5,-519.25 584.5,-493.5 512.25,-493.5"/>
<text xml:space="preserve" text-anchor="start" x="517.25" y="-502.88" font-family="Arial" font-size="10.00">REAL </text>
<polygon fill="none" stroke="black" points="363.5,-467.75 363.5,-493.5 512.25,-493.5 512.25,-467.75 363.5,-467.75"/>
<text xml:space="preserve" text-anchor="start" x="368.5" y="-475.2" font-family="Arial" font-size="14.00" fill="#1e8449">serving_size_g</text>
<polygon fill="none" stroke="black" points="512.25,-467.75 512.25,-493.5 584.5,-493.5 584.5,-467.75 512.25,-467.75"/>
<text xml:space="preserve" text-anchor="start" x="517.25" y="-477.12" font-family="Arial" font-size="10.00">REAL </text>
<polygon fill="none" stroke="black" points="363.5,-442 363.5,-467.75 512.25,-467.75 512.25,-442 363.5,-442"/>
<text xml:space="preserve" text-anchor="start" x="368.5" y="-449.45" font-family="Arial" font-size="14.00" fill="#1e8449">cooking_method</text>
<polygon fill="none" stroke="black" points="512.25,-442 512.25,-467.75 584.5,-467.75 584.5,-442 512.25,-442"/>
<text xml:space="preserve" text-anchor="start" x="517.25" y="-451.38" font-family="Arial" font-size="10.00">TEXT </text>
<polygon fill="none" stroke="black" points="363.5,-416.25 363.5,-442 512.25,-442 512.25,-416.25 363.5,-416.25"/>
<text xml:space="preserve" text-anchor="start" x="368.5" y="-423.7" font-family="Arial" font-size="14.00" fill="#1e8449">prep_time_min</text>
<polygon fill="none" stroke="black" points="512.25,-416.25 512.25,-442 584.5,-442 584.5,-416.25 512.25,-416.25"/>
<text xml:space="preserve" text-anchor="start" x="517.25" y="-425.62" font-family="Arial" font-size="10.00">REAL </text>
<polygon fill="none" stroke="black" points="363.5,-390.5 363.5,-416.25 512.25,-416.25 512.25,-390.5 363.5,-390.5"/>
<text xml:space="preserve" text-anchor="start" x="368.5" y="-397.95" font-family="Arial" font-size="14.00" fill="#1e8449">cook_time_min</text>
<polygon fill="none" stroke="black" points="512.25,-390.5 512.25,-416.25 584.5,-416.25 584.5,-390.5 512.25,-390.5"/>
<text xml:space="preserve" text-anchor="start" x="517.25" y="-399.88" font-family="Arial" font-size="10.00">REAL </text>
<polygon fill="none" stroke="black" points="363.5,-364.75 363.5,-390.5 512.25,-390.5 512.25,-364.75 363.5,-364.75"/>
<text xml:space="preserve" text-anchor="start" x="368.5" y="-372.2" font-family="Arial" font-size="14.00" fill="#1e8449">rating</text>
<polygon fill="none" stroke="black" points="512.25,-364.75 512.25,-390.5 584.5,-390.5 584.5,-364.75 512.25,-364.75"/>
<text xml:space="preserve" text-anchor="start" x="517.25" y="-374.12" font-family="Arial" font-size="10.00">REAL </text>
</g>
<!-- users&#45;&gt;nutrition -->
<g id="edge3" class="edge">
<title>users&#45;&gt;nutrition</title>
<path fill="none" stroke="black" d="M211.97,-779.17C254.04,-751.81 302.89,-720.03 346.87,-691.42"/>
<polygon fill="black" stroke="black" points="346.94,-691.38 357.78,-689.7 351.41,-688.47 355.04,-686.11 355.04,-686.11 355.04,-686.11 351.41,-688.47 352.87,-682.15 346.94,-691.38"/>
<text xml:space="preserve" text-anchor="middle" x="278.62" y="-766.1" font-family="Arial" font-size="10.00">FK: user_id &#45;&gt; user_id</text>
<text xml:space="preserve" text-anchor="middle" x="352.98" y="-676.24" font-family="Arial" font-size="10.00">1</text>
<text xml:space="preserve" text-anchor="middle" x="216.1" y="-769.67" font-family="Arial" font-size="10.00">M</text>
</g>
<!-- workout_analysis -->
<g id="node5" class="node">
<title>workout_analysis</title>
<polygon fill="#3498db" stroke="none" points="353,-313 353,-338.75 595,-338.75 595,-313 353,-313"/>
<polygon fill="none" stroke="black" points="353,-313 353,-338.75 595,-338.75 595,-313 353,-313"/>
<text xml:space="preserve" text-anchor="start" x="417" y="-321.45" font-family="Arial" font-weight="bold" font-size="14.00" fill="WHITE">workout_analysis</text>
<polygon fill="none" stroke="black" points="353,-287.25 353,-313 522.75,-313 522.75,-287.25 353,-287.25"/>
<text xml:space="preserve" text-anchor="start" x="358" y="-294.7" font-family="Arial" font-size="14.00" fill="#1e8449">analysis_id</text>
<polygon fill="none" stroke="black" points="522.75,-287.25 522.75,-313 595,-313 595,-287.25 522.75,-287.25"/>
<text xml:space="preserve" text-anchor="start" x="527.75" y="-297.62" font-family="Arial" font-size="10.00">INTEGER </text>
<text xml:space="preserve" text-anchor="start" x="575.75" y="-297.62" font-family="Arial" font-weight="bold" font-size="10.00">PK</text>
<polygon fill="none" stroke="black" points="353,-261.5 353,-287.25 522.75,-287.25 522.75,-261.5 353,-261.5"/>
<text xml:space="preserve" text-anchor="start" x="358" y="-268.95" font-family="Arial" font-size="14.00" fill="#c0392b">user_id</text>
<polygon fill="none" stroke="black" points="522.75,-261.5 522.75,-287.25 595,-287.25 595,-261.5 522.75,-261.5"/>
<text xml:space="preserve" text-anchor="start" x="527.75" y="-270.88" font-family="Arial" font-size="10.00">INTEGER </text>
<polygon fill="none" stroke="black" points="353,-235.75 353,-261.5 522.75,-261.5 522.75,-235.75 353,-235.75"/>
<text xml:space="preserve" text-anchor="start" x="358" y="-243.2" font-family="Arial" font-size="14.00" fill="#1e8449">pct_hrr</text>
<polygon fill="none" stroke="black" points="522.75,-235.75 522.75,-261.5 595,-261.5 595,-235.75 522.75,-235.75"/>
<text xml:space="preserve" text-anchor="start" x="527.75" y="-245.12" font-family="Arial" font-size="10.00">REAL </text>
<polygon fill="none" stroke="black" points="353,-210 353,-235.75 522.75,-235.75 522.75,-210 353,-210"/>
<text xml:space="preserve" text-anchor="start" x="358" y="-217.45" font-family="Arial" font-size="14.00" fill="#1e8449">pct_maxhr</text>
<polygon fill="none" stroke="black" points="522.75,-210 522.75,-235.75 595,-235.75 595,-210 522.75,-210"/>
<text xml:space="preserve" text-anchor="start" x="527.75" y="-219.38" font-family="Arial" font-size="10.00">REAL </text>
<polygon fill="none" stroke="black" points="353,-184.25 353,-210 522.75,-210 522.75,-184.25 353,-184.25"/>
<text xml:space="preserve" text-anchor="start" x="358" y="-191.7" font-family="Arial" font-size="14.00" fill="#1e8449">cal_balance</text>
<polygon fill="none" stroke="black" points="522.75,-184.25 522.75,-210 595,-210 595,-184.25 522.75,-184.25"/>
<text xml:space="preserve" text-anchor="start" x="527.75" y="-193.62" font-family="Arial" font-size="10.00">REAL </text>
<polygon fill="none" stroke="black" points="353,-158.5 353,-184.25 522.75,-184.25 522.75,-158.5 353,-158.5"/>
<text xml:space="preserve" text-anchor="start" x="358" y="-165.95" font-family="Arial" font-size="14.00" fill="#1e8449">expected_burn</text>
<polygon fill="none" stroke="black" points="522.75,-158.5 522.75,-184.25 595,-184.25 595,-158.5 522.75,-158.5"/>
<text xml:space="preserve" text-anchor="start" x="527.75" y="-167.88" font-family="Arial" font-size="10.00">REAL </text>
<polygon fill="none" stroke="black" points="353,-132.75 353,-158.5 522.75,-158.5 522.75,-132.75 353,-132.75"/>
<text xml:space="preserve" text-anchor="start" x="358" y="-140.2" font-family="Arial" font-size="14.00" fill="#1e8449">benefit</text>
<polygon fill="none" stroke="black" points="522.75,-132.75 522.75,-158.5 595,-158.5 595,-132.75 522.75,-132.75"/>
<text xml:space="preserve" text-anchor="start" x="527.75" y="-142.12" font-family="Arial" font-size="10.00">TEXT </text>
<polygon fill="none" stroke="black" points="353,-107 353,-132.75 522.75,-132.75 522.75,-107 353,-107"/>
<text xml:space="preserve" text-anchor="start" x="358" y="-114.45" font-family="Arial" font-size="14.00" fill="#1e8449">burns_calories_per_30min</text>
<polygon fill="none" stroke="black" points="522.75,-107 522.75,-132.75 595,-132.75 595,-107 522.75,-107"/>
<text xml:space="preserve" text-anchor="start" x="527.75" y="-116.38" font-family="Arial" font-size="10.00">REAL </text>
<polygon fill="none" stroke="black" points="353,-81.25 353,-107 522.75,-107 522.75,-81.25 353,-81.25"/>
<text xml:space="preserve" text-anchor="start" x="358" y="-88.7" font-family="Arial" font-size="14.00" fill="#1e8449">type_of_muscle</text>
<polygon fill="none" stroke="black" points="522.75,-81.25 522.75,-107 595,-107 595,-81.25 522.75,-81.25"/>
<text xml:space="preserve" text-anchor="start" x="527.75" y="-90.62" font-family="Arial" font-size="10.00">TEXT </text>
<polygon fill="none" stroke="black" points="353,-55.5 353,-81.25 522.75,-81.25 522.75,-55.5 353,-55.5"/>
<text xml:space="preserve" text-anchor="start" x="358" y="-62.95" font-family="Arial" font-size="14.00" fill="#1e8449">training_efficiency</text>
<polygon fill="none" stroke="black" points="522.75,-55.5 522.75,-81.25 595,-81.25 595,-55.5 522.75,-55.5"/>
<text xml:space="preserve" text-anchor="start" x="527.75" y="-64.88" font-family="Arial" font-size="10.00">REAL </text>
<polygon fill="none" stroke="black" points="353,-29.75 353,-55.5 522.75,-55.5 522.75,-29.75 353,-29.75"/>
<text xml:space="preserve" text-anchor="start" x="358" y="-37.2" font-family="Arial" font-size="14.00" fill="#1e8449">muscle_focus_score</text>
<polygon fill="none" stroke="black" points="522.75,-29.75 522.75,-55.5 595,-55.5 595,-29.75 522.75,-29.75"/>
<text xml:space="preserve" text-anchor="start" x="527.75" y="-39.12" font-family="Arial" font-size="10.00">REAL </text>
<polygon fill="none" stroke="black" points="353,-4 353,-29.75 522.75,-29.75 522.75,-4 353,-4"/>
<text xml:space="preserve" text-anchor="start" x="358" y="-11.45" font-family="Arial" font-size="14.00" fill="#1e8449">recovery_index</text>
<polygon fill="none" stroke="black" points="522.75,-4 522.75,-29.75 595,-29.75 595,-4 522.75,-4"/>
<text xml:space="preserve" text-anchor="start" x="527.75" y="-13.38" font-family="Arial" font-size="10.00">REAL </text>
</g>
<!-- users&#45;&gt;workout_analysis -->
<g id="edge4" class="edge">
<title>users&#45;&gt;workout_analysis</title>
<path fill="none" stroke="black" d="M180.54,-676.06C223.23,-581.31 280.3,-462.32 345.08,-351.41"/>
<polygon fill="black" stroke="black" points="345.13,-351.33 354.07,-344.99 347.83,-346.73 350.02,-343 350.02,-343 350.02,-343 347.83,-346.73 346.31,-340.43 345.13,-351.33"/>
<text xml:space="preserve" text-anchor="middle" x="278.62" y="-567.23" font-family="Arial" font-size="10.00">FK: user_id &#45;&gt; user_id</text>
<text xml:space="preserve" text-anchor="middle" x="347.73" y="-344.92" font-family="Arial" font-size="10.00">1</text>
<text xml:space="preserve" text-anchor="middle" x="176.41" y="-666.56" font-family="Arial" font-size="10.00">M</text>
</g>
<!-- templates -->
<g id="node6" class="node">
<title>templates</title>
<polygon fill="#3498db" stroke="none" points="17.75,-1118.12 17.75,-1143.88 194.5,-1143.88 194.5,-1118.12 17.75,-1118.12"/>
<polygon fill="none" stroke="black" points="17.75,-1118.12 17.75,-1143.88 194.5,-1143.88 194.5,-1118.12 17.75,-1118.12"/>
<text xml:space="preserve" text-anchor="start" x="74.25" y="-1126.58" font-family="Arial" font-weight="bold" font-size="14.00" fill="WHITE">templates</text>
<polygon fill="none" stroke="black" points="17.75,-1092.38 17.75,-1118.12 122.25,-1118.12 122.25,-1092.38 17.75,-1092.38"/>
<text xml:space="preserve" text-anchor="start" x="22.75" y="-1099.83" font-family="Arial" font-size="14.00" fill="#1e8449">template_id</text>
<polygon fill="none" stroke="black" points="122.25,-1092.38 122.25,-1118.12 194.5,-1118.12 194.5,-1092.38 122.25,-1092.38"/>
<text xml:space="preserve" text-anchor="start" x="127.25" y="-1102.75" font-family="Arial" font-size="10.00">INTEGER </text>
<text xml:space="preserve" text-anchor="start" x="175.25" y="-1102.75" font-family="Arial" font-weight="bold" font-size="10.00">PK</text>
<polygon fill="none" stroke="black" points="17.75,-1066.62 17.75,-1092.38 122.25,-1092.38 122.25,-1066.62 17.75,-1066.62"/>
<text xml:space="preserve" text-anchor="start" x="22.75" y="-1074.08" font-family="Arial" font-size="14.00" fill="#1e8449">template_name</text>
<polygon fill="none" stroke="black" points="122.25,-1066.62 122.25,-1092.38 194.5,-1092.38 194.5,-1066.62 122.25,-1066.62"/>
<text xml:space="preserve" text-anchor="start" x="127.25" y="-1076" font-family="Arial" font-size="10.00">TEXT </text>
<polygon fill="none" stroke="black" points="17.75,-1040.88 17.75,-1066.62 122.25,-1066.62 122.25,-1040.88 17.75,-1040.88"/>
<text xml:space="preserve" text-anchor="start" x="22.75" y="-1048.33" font-family="Arial" font-size="14.00" fill="#1e8449">template_text</text>
<polygon fill="none" stroke="black" points="122.25,-1040.88 122.25,-1066.62 194.5,-1066.62 194.5,-1040.88 122.25,-1040.88"/>
<text xml:space="preserve" text-anchor="start" x="127.25" y="-1050.25" font-family="Arial" font-size="10.00">TEXT </text>
</g>
</g>
</svg>
